<svg width="20" height="20" viewBox="0 0 20 20" fill="none" xmlns="http://www.w3.org/2000/svg">
<path fill-rule="evenodd" clip-rule="evenodd" d="M12.5844 4.58604C12.7689 4.39502 12.9896 4.24266 13.2336 4.13784C13.4776 4.03302 13.74 3.97785 14.0056 3.97554C14.2711 3.97323 14.5345 4.02384 14.7803 4.1244C15.0261 4.22496 15.2494 4.37347 15.4372 4.56125C15.6249 4.74904 15.7735 4.97234 15.874 5.21813C15.9746 5.46393 16.0252 5.72729 16.0229 5.99284C16.0206 6.2584 15.9654 6.52084 15.8606 6.76485C15.7558 7.00886 15.6034 7.22955 15.4124 7.41404L12.4124 10.414C12.0373 10.789 11.5287 10.9996 10.9984 10.9996C10.468 10.9996 9.95943 10.789 9.58437 10.414C9.39577 10.2319 9.14317 10.1311 8.88097 10.1334C8.61877 10.1356 8.36796 10.2408 8.18255 10.4262C7.99714 10.6116 7.89198 10.8624 7.8897 11.1246C7.88742 11.3868 7.98821 11.6394 8.17037 11.828C8.92048 12.5779 9.93771 12.9992 10.9984 12.9992C12.059 12.9992 13.0763 12.5779 13.8264 11.828L16.8264 8.82804C17.555 8.07363 17.9582 7.06322 17.9491 6.01444C17.94 4.96565 17.5193 3.9624 16.7776 3.22077C16.036 2.47914 15.0328 2.05846 13.984 2.04935C12.9352 2.04023 11.9248 2.44341 11.1704 3.17204L9.67037 4.67204C9.57486 4.76429 9.49868 4.87463 9.44627 4.99664C9.39386 5.11864 9.36628 5.24986 9.36512 5.38264C9.36397 5.51542 9.38927 5.6471 9.43955 5.77C9.48983 5.89289 9.56408 6.00454 9.65798 6.09844C9.75187 6.19233 9.86352 6.26658 9.98642 6.31686C10.1093 6.36714 10.241 6.39245 10.3738 6.39129C10.5066 6.39014 10.6378 6.36255 10.7598 6.31014C10.8818 6.25773 10.9921 6.18155 11.0844 6.08604L12.5844 4.58604ZM7.58437 9.58604C7.95943 9.2111 8.46804 9.00047 8.99837 9.00047C9.5287 9.00047 10.0373 9.2111 10.4124 9.58604C10.5046 9.68155 10.615 9.75773 10.737 9.81014C10.859 9.86255 10.9902 9.89014 11.123 9.89129C11.2557 9.89245 11.3874 9.86715 11.5103 9.81686C11.6332 9.76658 11.7449 9.69233 11.8388 9.59844C11.9327 9.50454 12.0069 9.39289 12.0572 9.27C12.1075 9.1471 12.1328 9.01542 12.1316 8.88264C12.1305 8.74986 12.1029 8.61864 12.0505 8.49664C11.9981 8.37463 11.9219 8.26429 11.8264 8.17204C11.0763 7.42216 10.059 7.0009 8.99837 7.0009C7.93772 7.0009 6.92048 7.42216 6.17037 8.17204L3.17037 11.172C2.78833 11.541 2.4836 11.9824 2.27397 12.4704C2.06433 12.9584 1.95399 13.4833 1.94937 14.0144C1.94475 14.5456 2.04596 15.0723 2.24708 15.5639C2.44821 16.0554 2.74522 16.5021 3.12079 16.8776C3.49636 17.2532 3.94297 17.5502 4.43456 17.7513C4.92614 17.9525 5.45286 18.0537 5.98398 18.049C6.51509 18.0444 7.03997 17.9341 7.52799 17.7244C8.01601 17.5148 8.45738 17.2101 8.82637 16.828L10.3264 15.328C10.4219 15.2358 10.4981 15.1255 10.5505 15.0034C10.6029 14.8814 10.6305 14.7502 10.6316 14.6174C10.6328 14.4847 10.6075 14.353 10.5572 14.2301C10.5069 14.1072 10.4327 13.9955 10.3388 13.9016C10.2449 13.8078 10.1332 13.7335 10.0103 13.6832C9.88743 13.6329 9.75575 13.6076 9.62297 13.6088C9.49019 13.6099 9.35897 13.6375 9.23697 13.6899C9.11496 13.7423 9.00462 13.8185 8.91237 13.914L7.41237 15.414C7.22788 15.6051 7.00719 15.7574 6.76318 15.8622C6.51917 15.9671 6.25673 16.0222 5.99117 16.0245C5.72562 16.0269 5.46226 15.9762 5.21646 15.8757C4.97067 15.7751 4.74737 15.6266 4.55958 15.4388C4.3718 15.251 4.22329 15.0277 4.12273 14.7819C4.02217 14.5362 3.97156 14.2728 3.97387 14.0072C3.97618 13.7417 4.03135 13.4792 4.13617 13.2352C4.24099 12.9912 4.39335 12.7705 4.58437 12.586L7.58437 9.58604Z" fill="#1E1A1C"/>
</svg>
