<svg width="28" height="31" viewBox="0 0 28 31" fill="none" xmlns="http://www.w3.org/2000/svg">
<rect x="0.202899" y="0.23189" width="27.5942" height="29.6232" rx="6.28986" fill="#1E1A1C"/>
<rect x="0.202899" y="0.23189" width="27.5942" height="29.6232" rx="6.28986" stroke="#F3ECE2" stroke-width="0.405797"/>
<g clip-path="url(#clip0_124_1831)">
<path d="M17.5725 13.0585C17.4636 12.9953 17.3329 12.911 17.2675 12.8688C16.8972 13.0164 16.5486 13.3325 16.2436 13.6486C15.5464 14.3651 15.6118 14.7656 14.8492 15.0395C14.6532 15.1028 14.4353 15.1871 14.1303 15.2503C13.956 14.7445 13.5203 14.2176 13.0627 14.2176C12.7359 14.2176 12.3874 14.3862 11.9516 14.5548C11.4505 14.7656 10.993 15.0185 10.8623 15.1028L11.0584 15.3557C11.2109 15.2714 11.6248 15.0817 12.0606 14.892C12.4309 14.7445 12.7577 14.618 12.9974 14.618C13.3678 14.618 13.6074 15.0185 13.7381 15.3346C13.2588 15.44 12.4745 15.461 12.2349 15.461C12.1259 15.461 12.0823 15.4821 12.0388 15.5032C11.9952 15.5243 11.9734 15.5875 11.9516 15.6718L11.9298 15.7772H12.1913C13.5203 15.7772 14.7621 15.5664 15.5464 15.1028C15.6553 15.1238 15.7643 15.1449 15.895 15.1449C16.3525 15.1449 16.8318 14.9131 17.115 14.6813C17.224 14.597 17.2457 14.5337 17.2457 14.4494C17.2457 14.4073 17.2457 14.3862 17.2457 14.3441L17.224 14.2176C16.81 14.5337 16.4396 14.7866 16.0039 14.7866C15.9168 14.7866 15.8732 14.7866 15.8296 14.7656C16.2436 14.1333 16.6357 13.5432 17.5725 13.0585Z" fill="white"/>
<path d="M14.7624 13.8383C14.4574 13.8383 14.5009 13.3535 14.4791 12.9531C13.4116 13.0585 12.758 13.3535 12.0391 13.7329L12.1262 14.049C12.7798 13.6697 13.4116 13.4589 14.087 13.3746C14.087 13.754 14.2613 14.2597 14.697 14.2597C15.1763 14.2597 15.7428 13.5432 16.4181 12.7002L16.5924 12.4684C16.5053 12.4052 16.3964 12.3419 16.331 12.2787C15.6338 13.1428 15.0456 13.8383 14.7624 13.8383Z" fill="white"/>
<path d="M12.4535 8.5695C12.3446 8.5695 12.2356 8.54843 12.1049 8.52735C11.996 8.50628 11.8871 8.4852 11.7345 8.4852C11.4513 8.4852 11.1463 8.59058 10.9502 8.78025C10.5799 9.11745 10.5581 9.49679 10.5363 9.83399C10.5145 10.2766 10.4274 10.3819 10.1659 10.6981C9.96984 10.951 9.68661 11.3092 9.46875 11.6675C9.53411 11.6886 9.75197 11.815 9.83912 11.8572C10.0788 11.4989 10.4274 11.0563 10.6452 10.7402C10.8413 10.4452 10.9284 10.3187 10.9502 9.91829C10.9502 9.85507 10.9502 9.79184 10.9502 9.72862C10.972 9.51787 11.0156 9.30712 11.2335 9.11745C11.386 8.96992 11.6038 8.88563 11.8217 8.88563C12.0396 8.88563 12.1485 8.94885 12.3446 8.94885C12.4753 8.94885 12.5624 8.92777 12.6496 8.88563L12.7149 8.86455L12.5624 9.2439L12.9328 9.39142C12.6932 9.53894 12.1485 10.1712 12.1485 10.9088C12.1485 11.1828 12.1921 11.4357 12.2574 11.6464C12.2574 11.6675 12.2792 11.6886 12.3228 11.6886C12.3664 11.6886 12.3881 11.6675 12.3881 11.6254V11.5411C12.4099 11.3092 12.4099 10.951 12.5189 10.6348C12.6714 10.0869 13.1071 9.58109 13.521 9.3282L12.9328 9.05422L13.1942 8.44305L12.911 8.50628C12.7367 8.52735 12.606 8.5695 12.4535 8.5695Z" fill="white"/>
<path d="M14.7403 6.01947C14.5006 6.01947 14.457 6.23022 14.457 6.35667C14.457 6.46204 14.5006 6.56742 14.6095 6.56742C14.7185 6.56742 14.8274 6.50419 14.9363 6.41989C15.0453 6.33559 15.1106 6.27237 15.1106 6.20914C15.1106 6.14592 15.0453 6.10377 14.9799 6.06162C14.8928 6.04055 14.8274 6.01947 14.7403 6.01947Z" fill="white"/>
<path d="M14.8494 10.3398H13.3462L13.1719 10.656H14.9802L14.8494 10.3398Z" fill="white"/>
<path d="M11.2545 7.45261C11.3416 7.38938 11.4288 7.32616 11.4288 7.24186C11.4288 7.19971 11.407 7.15756 11.3634 7.13648C11.298 7.07326 11.2109 7.05219 11.1237 7.05219C10.9495 7.05219 10.8623 7.22078 10.8623 7.36831C10.8623 7.47368 10.9277 7.53691 11.0366 7.53691C11.102 7.51583 11.1891 7.49476 11.2545 7.45261Z" fill="white"/>
<path d="M21.7338 13.7118L21.9081 13.8172C21.9299 13.8383 21.9517 13.8383 21.9735 13.8383C22.017 13.8383 22.0388 13.7961 22.0388 13.775C22.0388 13.754 22.0388 13.7329 22.017 13.7329C21.4942 13.2692 20.9495 12.7213 20.4266 12.1944C20.0127 11.7729 19.5987 11.3304 19.2284 10.8878C19.2066 10.8667 19.1848 10.8456 19.163 10.8456C19.1194 10.8456 19.0977 10.8667 19.0977 10.9089C19.0977 10.951 19.1412 11.0142 19.2284 11.1618C19.4898 11.6043 19.8384 12.0469 20.2306 12.4684C20.6663 12.911 21.1892 13.3325 21.7338 13.7118Z" fill="white"/>
<path d="M19.098 24.9658H19.5119C19.6209 24.9658 19.6862 24.9236 19.7516 24.8604C19.7951 24.8182 19.8169 24.7339 19.8169 24.6496V20.1818C19.8169 20.0975 19.7951 20.0343 19.7516 19.971C19.708 19.9078 19.6209 19.8657 19.5119 19.8657H19.098C18.989 19.8657 18.9237 19.9078 18.8583 19.971C18.8148 20.0132 18.793 20.0975 18.793 20.1818V24.6496C18.793 24.7339 18.8148 24.7972 18.8583 24.8604C18.9237 24.9236 18.989 24.9658 19.098 24.9658Z" fill="white"/>
<path d="M12.1704 9.22283C12.105 9.18068 12.0397 9.15961 11.9743 9.15961C11.8218 9.15961 11.7565 9.24391 11.7347 9.32821C11.7129 9.37035 11.7129 9.4125 11.7129 9.45465C11.7129 9.5811 11.7782 9.6654 11.8654 9.6654C11.9961 9.6654 12.2358 9.4968 12.2358 9.34928C12.2358 9.30713 12.214 9.24391 12.1704 9.22283Z" fill="white"/>
<path d="M7.35512 13.5432L7.3769 13.6907C7.3769 13.754 7.42048 13.7961 7.46405 13.8172C7.52941 13.8383 7.61656 13.8593 7.76906 13.8593C8.16122 13.8593 8.46623 13.8172 8.64052 13.775C9.07625 14.4073 9.66449 14.6391 10.2527 14.6391C10.7538 14.6391 11.2331 14.4705 11.7124 14.2176L11.6253 13.8804C11.1678 14.1333 10.6667 14.3019 10.2527 14.3019C9.77342 14.3019 9.35948 14.1122 8.9891 13.5854C8.8366 13.3746 8.72767 13.1007 8.57516 12.8478C8.40087 12.5527 8.22658 12.4052 7.89978 12.4052C7.61656 12.4052 7.31154 12.5316 7.02832 12.6581L7.05011 12.7213C7.07189 12.8267 7.11547 12.911 7.2244 12.911C7.26797 12.911 7.31154 12.8899 7.33333 12.8899C7.50762 12.8478 7.61656 12.7845 7.79085 12.7845C8.05229 12.7845 8.183 12.9321 8.3573 13.3114L8.42266 13.4378C8.24836 13.5011 7.81263 13.5221 7.48584 13.5221H7.35512V13.5432Z" fill="white"/>
<path d="M23.9133 23.3219C23.9787 23.2587 24.0004 23.1955 24.0004 23.048C24.0004 22.6054 23.8479 22.1417 23.5429 21.7835C23.2379 21.4252 22.7586 21.1723 22.0832 21.1723C20.8632 21.1723 20.166 22.0996 20.166 23.069C20.166 24.1017 20.9068 25.029 22.0832 25.029C22.6715 25.029 23.2597 24.8182 23.5865 24.4389C23.739 24.2703 23.8479 24.0385 23.8479 23.912C23.8479 23.8699 23.8479 23.8277 23.8044 23.7856C23.7826 23.7434 23.739 23.7224 23.6519 23.7224H23.0854C22.9765 23.7224 22.8893 23.7645 22.8458 23.8488C22.6715 24.0806 22.4318 24.2071 22.0832 24.2071C21.5604 24.2071 21.2118 23.8277 21.19 23.3852H23.6519C23.7826 23.3852 23.8697 23.3641 23.9133 23.3219ZM21.2118 22.6686C21.2553 22.2471 21.5821 21.931 22.0832 21.931C22.5843 21.931 22.9111 22.2471 22.9547 22.6686H21.2118Z" fill="white"/>
<path d="M21.1243 5.42941C20.9064 5.85091 20.035 7.17862 19.5557 7.72657L19.8171 8.00054C20.0785 7.72657 20.34 7.26292 20.645 6.79928H20.7103C20.7103 6.82035 20.7103 6.84143 20.7103 6.88357C20.7103 7.26292 20.9064 7.55797 21.4293 7.55797C21.7343 7.55797 22.2354 7.41045 22.6929 7.26292C23.0633 7.13647 23.4119 7.01002 23.5862 6.96787V6.56745C23.3901 6.63068 22.9761 6.7782 22.5622 6.92572C22.1265 7.07325 21.6907 7.1997 21.4511 7.1997C21.1679 7.1997 21.1025 7.05217 21.1025 6.84143C21.1025 6.41993 21.3857 5.78768 21.56 5.45049H21.1243V5.42941Z" fill="white"/>
<path d="M17.6604 6.82035C17.3118 6.48315 17.0285 6.10381 16.8543 5.93521C16.4839 5.53479 15.9828 5.02899 15.1549 5.02899C14.3706 5.02899 13.8477 5.53479 13.6734 5.95628C13.6299 6.08273 13.5863 6.23026 13.5645 6.29348C13.4774 6.41993 13.1288 6.98895 12.998 7.22077H13.6516L13.3248 7.81087C13.6952 7.72657 13.9567 7.66334 14.3052 7.66334C14.6102 7.66334 14.8499 7.72657 14.937 7.91624C15.1113 8.27451 15.1113 9.34933 15.4381 10.1502C15.7214 10.9089 16.4403 11.6465 17.2246 12.2155L17.2682 12.2366C17.3118 12.2366 17.3336 12.2155 17.3336 12.1734C17.3336 12.1523 17.3336 12.1312 17.3118 12.1312C16.6582 11.499 16.1135 10.7824 15.8085 10.0026C15.5253 9.24396 15.5689 8.19021 15.3292 7.70549C15.1549 7.38937 14.8063 7.30507 14.4795 7.30507C14.2181 7.30507 13.9784 7.34722 13.8695 7.38937L14.1527 6.92573H13.6734C13.7824 6.75713 13.8913 6.58853 13.9349 6.50423C13.9784 6.41993 14.0002 6.31456 14.0438 6.18811C14.2181 5.74554 14.632 5.45049 15.1549 5.45049C15.8085 5.45049 16.2007 5.87198 16.5928 6.27241C16.7671 6.46208 17.0503 6.8625 17.3989 7.15755C17.6386 7.3683 18.0743 7.60012 18.7497 8.25344C19.1418 8.63279 19.5994 9.13858 20.0569 9.83405C21.7562 12.2366 22.8891 14.3651 23.4991 16.03C21.7126 14.8499 20.1658 13.754 18.924 12.3841C18.0307 11.4147 17.2682 10.2766 16.5928 8.84353C16.5492 8.73816 16.5057 8.65386 16.4621 8.56956C16.4403 8.52741 16.4185 8.52741 16.3967 8.52741C16.3532 8.52741 16.3314 8.54849 16.3314 8.59064C16.3314 8.63279 16.3532 8.71708 16.3967 8.86461C16.7453 10.3609 17.7475 11.6886 18.7933 12.8056C19.839 13.9015 21.0373 14.8499 22.0177 15.5453L22.7802 17.6528C22.802 17.695 22.8238 17.7582 22.8238 17.8003C22.8238 17.8425 22.8238 17.8636 22.7802 17.8846C22.7584 17.9057 22.7366 17.9057 22.6712 17.9057H22.4316C22.3227 17.9057 22.3009 17.8846 22.2573 17.8636C22.2137 17.8425 22.1919 17.8003 22.1702 17.7371C22.1048 17.5474 21.6909 16.4305 21.6255 16.1986C21.6037 16.1565 21.5819 16.1354 21.5601 16.1354C21.5166 16.1354 21.4948 16.1565 21.4948 16.1986C21.4948 16.2197 21.4948 16.2619 21.5166 16.3462C21.6255 16.852 21.7344 17.421 21.778 17.6317C21.7998 17.7371 21.8216 17.8214 21.8216 17.8846C21.8216 17.9479 21.7998 17.99 21.7562 18.0322L21.5384 18.3061C21.473 18.3694 21.4512 18.3694 21.4076 18.3694C21.3423 18.3694 21.2987 18.3272 21.2769 18.2429C21.0155 17.0206 20.6015 15.5243 20.4926 15.1238C20.4708 15.0395 20.449 14.9763 20.3837 14.9763C20.3401 14.9763 20.3183 15.0185 20.3183 15.0606C20.3183 15.0817 20.3183 15.1238 20.3401 15.166C20.4055 15.5875 20.6669 17.1681 20.9501 18.6012C20.9937 18.8541 21.1026 18.9805 21.3205 18.9805C21.4294 18.9805 21.5166 18.9384 21.6037 18.8541C21.7562 18.7065 21.7998 18.6855 21.9741 18.5169C22.1048 18.4115 22.1919 18.3483 22.388 18.3483H22.9109C23.0416 18.3483 23.107 18.3272 23.1506 18.264C23.2159 18.2218 23.2377 18.1375 23.2377 18.0322C23.2377 17.9268 23.2159 17.8425 23.1723 17.7371C23.0416 17.3788 22.6059 16.2197 22.4752 15.8825C22.9109 16.1986 23.5645 16.6201 23.8477 16.6201C23.9349 16.6201 23.9784 16.578 23.9784 16.4515C23.9784 15.8193 22.8891 13.2482 20.4272 9.68653C19.1418 7.76872 17.9872 7.1154 17.6604 6.82035Z" fill="white"/>
<path d="M22.388 8.42204C22.8019 8.25344 23.5645 7.95839 24.0002 7.81087V7.38937C23.1287 7.7055 21.5819 8.31667 20.5361 8.86461C20.5579 8.90676 20.754 9.13858 20.7758 9.18073C21.2115 9.01213 21.6255 8.88569 21.974 8.88569C22.4751 8.88569 22.8891 8.88569 23.5862 8.73816V8.42204C23.1941 8.48526 22.7801 8.56956 22.5187 8.56956C22.3662 8.56956 22.3226 8.54849 22.3226 8.50634C22.3008 8.48526 22.3226 8.46419 22.388 8.42204Z" fill="white"/>
<path d="M12.2785 6.60956C12.0388 6.60956 11.8863 6.60956 11.6684 6.50419C11.3852 6.37774 11.2327 6.31451 10.993 6.31451C10.688 6.31451 10.4048 6.41989 10.1869 6.63064C9.92551 6.86246 9.83836 7.17858 9.75122 7.51578C9.68586 7.78975 9.59871 8.0848 9.40263 8.3377C9.22834 8.56952 9.11941 8.67489 8.74904 9.11746C8.24795 9.68648 7.98651 10.1501 7.55078 11.1617C7.61614 11.1617 7.72507 11.1406 7.83401 11.1406C7.89937 11.1406 7.94294 11.1406 8.0083 11.1406L8.05187 11.0353C8.29152 10.5295 8.61832 9.85508 9.07584 9.32821L9.22834 9.13854C9.70764 8.61167 9.99087 8.29555 10.1869 7.55793C10.2523 7.30503 10.2959 7.07321 10.492 6.90461C10.6445 6.75709 10.8623 6.69386 11.0584 6.69386C11.2327 6.69386 11.3634 6.73601 11.5595 6.82031C11.712 6.90461 11.7774 6.92568 11.9517 6.92568C12.017 6.92568 12.0606 6.92568 12.1042 6.92568L11.8645 7.24181L12.1913 7.47363C11.7774 7.60008 11.5595 7.97942 11.4724 8.1691C11.4506 8.21125 11.4506 8.23232 11.4506 8.2534C11.4506 8.27447 11.4724 8.31662 11.5159 8.31662C11.5595 8.31662 11.6031 8.27447 11.6466 8.21125C11.8427 7.97942 12.017 7.81083 12.7578 7.579L12.2349 7.19966L12.627 6.63064H12.2785V6.60956Z" fill="white"/>
<path d="M5.65577 7.85302C4.78431 7.85302 4.41394 8.25344 4.41394 8.52741C4.15251 8.63279 4 8.90676 4 9.15966C4 9.66545 4.39216 10.0237 4.89325 10.0237C5.06754 10.0237 5.24183 9.9605 5.35076 9.8762C5.43791 9.89727 5.54684 9.91835 5.67756 9.91835C5.91721 9.91835 6.20044 9.83405 6.37473 9.56008C6.39651 9.56008 6.4183 9.56008 6.46187 9.56008C6.76688 9.56008 7.05011 9.3704 7.18083 9.09643C7.2244 9.03321 7.2244 8.99106 7.2244 8.94891C7.2244 8.90676 7.20261 8.88568 7.15904 8.88568C7.11547 8.88568 7.09368 8.92783 7.00654 9.01213C6.81046 9.18073 6.50545 9.24395 6.20044 9.24395C6.04793 9.4547 5.85185 9.58115 5.65577 9.58115C5.50327 9.58115 5.37255 9.539 5.24183 9.4547C5.1329 9.56008 5.00218 9.60223 4.89325 9.60223C4.61002 9.60223 4.41394 9.41255 4.41394 9.13858C4.41394 8.94891 4.54466 8.78031 4.71895 8.71708C4.74074 8.37989 5.1329 8.14806 5.59041 8.14806C5.65577 8.14806 5.69935 8.14806 5.76471 8.14806C5.83007 8.04269 6.00436 7.91624 6.24401 7.89517C6.28758 7.89517 6.33115 7.89517 6.35294 7.87409C6.37473 7.85302 6.39651 7.83194 6.39651 7.81087C6.39651 7.78979 6.39651 7.76872 6.35294 7.74764C6.33115 7.72657 6.28758 7.72657 6.24401 7.72657C6.02614 7.68442 5.76471 7.55797 5.6122 7.22077C5.08932 7.22077 4.69717 6.79928 4.69717 6.33563V6.31456C4.54466 6.25133 4.41394 6.08273 4.41394 5.89306C4.41394 5.64016 4.63181 5.42941 4.89325 5.42941C5.04575 5.42941 5.19826 5.51371 5.2854 5.61909C5.35076 5.59801 5.43791 5.59801 5.52505 5.59801C5.91721 5.59801 6.35294 5.82983 6.4183 6.31456C6.91939 6.35671 7.05011 6.7782 7.0719 6.9468C7.09368 7.0311 7.09368 7.1154 7.15904 7.1154C7.2244 7.1154 7.24619 7.05217 7.26797 6.9468C7.31155 6.7782 7.37691 6.63068 7.50763 6.5253C7.50763 6.08273 7.85621 5.70339 8.33551 5.70339C8.40087 5.55586 8.57516 5.42941 8.77124 5.42941C9.03268 5.42941 9.25054 5.61909 9.25054 5.89306C9.25054 6.04058 9.18518 6.18811 9.05447 6.25133C9.07625 6.33563 9.09804 6.41993 9.09804 6.48315C9.09804 6.7782 8.92375 6.96787 8.59695 7.07325C8.55338 7.24185 8.48802 7.41045 8.3573 7.51582C8.13943 7.70549 7.92157 7.70549 7.92157 7.78979C7.92157 7.83194 7.94336 7.85302 8.0305 7.85302C8.42266 7.85302 8.81481 7.64227 8.85839 7.284C9.22876 7.15755 9.46841 6.79928 9.46841 6.50423C9.46841 6.41993 9.46841 6.35671 9.42484 6.29348C9.53377 6.18811 9.6427 6.04058 9.6427 5.78769C9.6427 5.57694 9.55556 5.36619 9.38126 5.19759C9.25054 5.11329 9.03268 5.02899 8.79303 5.02899C8.44444 5.02899 8.20479 5.21867 8.07407 5.38726C7.68192 5.38726 7.20261 5.80876 7.20261 6.39885H7.15904C7.11547 6.18811 6.8976 6.06166 6.72331 6.04058C6.54902 5.61909 6.22222 5.23974 5.67756 5.23974C5.6122 5.23974 5.54684 5.23974 5.45969 5.26081C5.30719 5.11329 5.11111 5.02899 4.87146 5.02899C4.39216 5.02899 4 5.40834 4 5.87198C4 6.16703 4.13072 6.35671 4.39216 6.54638V6.6096C4.39216 6.98895 4.8061 7.57904 5.43791 7.57904C5.43791 7.68442 5.56863 7.81087 5.69935 7.83194V7.87409H5.65577V7.85302Z" fill="white"/>
<path d="M14.4789 24.2492C14.3047 24.2492 14.1304 24.2281 13.9996 24.1438C13.8907 24.1017 13.8254 24.0384 13.76 23.9331C13.7164 23.8488 13.6946 23.8066 13.6075 23.7434C13.5639 23.7223 13.4986 23.7223 13.4114 23.7223H12.9757C12.8885 23.7223 12.845 23.7434 12.8014 23.7855C12.7796 23.8277 12.7578 23.8698 12.7578 23.9331C12.7578 24.0595 12.8014 24.2492 12.9321 24.3967C13.1935 24.755 13.76 25.029 14.4789 25.029C15.1761 25.029 16.1565 24.755 16.1565 23.8277C16.1565 23.5959 16.0911 23.3851 15.9604 23.2165C15.7861 23.0058 15.5683 22.8583 15.1543 22.774L14.3482 22.5843C14.0214 22.5 13.8689 22.4368 13.8689 22.2471C13.8689 22.0574 14.0432 21.9099 14.4572 21.9099C14.6968 21.9099 14.9147 21.952 15.0672 22.0996C15.1761 22.226 15.1543 22.2892 15.2633 22.3314C15.3286 22.3525 15.394 22.3525 15.4811 22.3525H15.8733C15.9386 22.3525 15.9822 22.3525 16.0258 22.3103C16.0476 22.2892 16.0694 22.226 16.0694 22.1628C16.0694 21.9942 15.9604 21.7624 15.7426 21.5727C15.4593 21.3409 15.0236 21.1723 14.4789 21.1723C13.5203 21.1723 12.8885 21.6148 12.8885 22.3314C12.8885 22.5843 12.9757 22.795 13.1282 22.9426C13.3025 23.1322 13.5639 23.2587 13.9343 23.343L14.7404 23.5327C14.9582 23.5959 15.1543 23.6591 15.1543 23.8488C15.1325 24.1438 14.8057 24.2492 14.4789 24.2492Z" fill="white"/>
<path d="M7.09375 7.91623C7.28983 8.16913 7.59484 8.696 7.89985 9.37039C7.94342 9.28609 8.11772 9.07535 8.18307 9.01212C7.92164 8.48525 7.46412 7.97946 7.26804 7.76871L7.09375 7.91623Z" fill="white"/>
<path d="M12.1264 12.5316C12.4315 12.3841 12.9108 12.3209 13.1722 12.3209C13.3901 12.3209 13.6297 12.342 13.8258 12.363C14.0654 12.3841 14.3487 12.4263 14.6319 12.4263C15.2855 12.4263 15.9391 12.0891 16.048 12.0258C15.9609 11.9626 15.8737 11.8572 15.8084 11.794C15.5905 11.8783 15.1112 12.0469 14.6319 12.0469C14.3922 12.0469 14.1962 12.0258 13.9783 12.0048C13.6951 11.9626 13.4336 11.9415 13.2158 11.9415C12.8454 11.9415 12.3879 11.9837 11.9521 12.2787L12.1264 12.5316Z" fill="white"/>
<path d="M11.4947 12.2576L11.2987 12.0047C10.5143 12.2998 9.62109 12.7634 9.62109 13.2481C9.62109 13.5221 9.83896 13.7329 10.3183 13.7329C11.0154 13.7329 11.7562 13.3957 12.3662 13.0795L12.279 12.9952C12.2355 12.932 12.1919 12.9109 12.1265 12.9109C12.083 12.9109 12.0394 12.932 11.9958 12.9531C11.4947 13.1849 10.9283 13.4378 10.4054 13.4378C10.1004 13.4378 10.035 13.3535 10.035 13.2271C10.035 12.8477 11.0154 12.4473 11.4947 12.2576Z" fill="white"/>
<path d="M18.2924 21.9942C18.3577 21.9942 18.4231 21.9731 18.4667 21.931C18.5102 21.8888 18.532 21.8256 18.532 21.7624V21.5305C18.532 21.4462 18.5102 21.4041 18.4667 21.3619C18.4231 21.3198 18.3577 21.2987 18.2924 21.2987H17.6606V20.1818C17.6606 20.0975 17.6388 20.0342 17.5952 19.971C17.5516 19.9078 17.4645 19.8656 17.3556 19.8656H16.9634C16.8545 19.8656 16.7891 19.9078 16.7237 19.971C16.6802 20.0132 16.6584 20.0975 16.6584 20.1818V21.2987H16.4623C16.3969 21.2987 16.3316 21.3198 16.288 21.3619C16.2444 21.4041 16.2227 21.4673 16.2227 21.5305V21.7624C16.2227 21.8467 16.2444 21.9099 16.288 21.931C16.3316 21.9731 16.3969 21.9942 16.4623 21.9942H16.6366V23.7012C16.6366 24.1438 16.7673 24.4178 16.9852 24.6285C17.203 24.8393 17.4645 24.9657 17.9438 24.9657H18.2488C18.3142 24.9657 18.3795 24.9447 18.4231 24.9025C18.4667 24.8604 18.4885 24.7971 18.4885 24.7339V24.4389C18.4885 24.3546 18.4667 24.3124 18.4231 24.2703C18.3795 24.2281 18.3359 24.207 18.2706 24.207H18.227C18.0309 24.207 17.9002 24.1649 17.8131 24.0806C17.7041 23.9752 17.6606 23.8488 17.6606 23.638V21.9942H18.2924Z" fill="white"/>
<path d="M23.6512 20.6454C23.7165 20.6454 23.7819 20.6243 23.8255 20.5822C23.869 20.54 23.8908 20.4768 23.8908 20.4136V20.0974C23.8908 19.971 23.869 19.9078 23.8255 19.8656C23.7819 19.8235 23.7165 19.8024 23.6512 19.8024C23.5858 19.8024 23.5422 19.8024 23.4333 19.8235L20.6228 20.0974C20.5357 20.0974 20.5139 20.1185 20.4703 20.1607C20.4485 20.2028 20.4268 20.245 20.4268 20.3082V20.4768C20.4268 20.54 20.4485 20.5822 20.4703 20.6032C20.4921 20.6454 20.5575 20.6454 20.601 20.6454H23.6512Z" fill="white"/>
<path d="M18.4882 13.501C17.9653 14.5759 17.1592 15.3556 16.3313 15.8193C15.9392 16.03 15.5906 16.1775 14.8281 16.1775H13.1723C12.5841 16.1775 12.2137 16.2618 11.9305 16.3251C11.6255 16.4094 11.4294 16.4726 11.1026 16.4726C10.6451 16.4726 10.2093 16.2408 9.99147 16.03L10.3836 15.735L10.1875 15.4821C10.0786 15.5664 8.70606 16.5569 8.40105 16.7676H8.37927C8.37927 16.7044 8.37927 16.6412 8.37927 16.578C8.37927 15.8193 8.0089 15.6507 7.46423 15.4399L7.09386 15.6507C7.8346 15.8825 8.03068 16.0932 8.03068 16.6201C8.03068 17.0416 7.87818 17.2102 7.63853 17.3577C7.39887 17.4842 7.11565 17.5474 6.85421 17.5474C6.74528 17.5474 6.70171 17.5685 6.65813 17.6106C6.61456 17.6528 6.59277 17.716 6.59277 17.8003V17.9267H6.67992C7.15922 17.9267 7.59495 17.8635 8.07426 17.4842L9.64288 16.304C9.86075 16.5569 10.4272 16.8941 11.0808 16.8941C11.4512 16.8941 11.6908 16.8098 12.0394 16.7255C12.3008 16.6623 12.5623 16.599 13.1505 16.599H14.8063C15.656 16.599 16.0699 16.4304 16.5056 16.1775C17.486 15.6507 18.3139 14.7445 18.7932 13.7118C18.6843 13.6275 18.5753 13.5643 18.4882 13.501Z" fill="white"/>
<path d="M4.0222 16.8309H4.15292C4.41436 16.8309 4.43614 16.6833 4.43614 16.5358C4.43614 16.4304 4.43614 16.3251 4.43614 16.1986C4.43614 15.9246 4.45793 15.6717 4.91545 15.461C5.11152 15.3767 6.04834 15.0184 6.74551 14.7234C6.94159 14.6391 7.13767 14.5759 7.35553 14.5759C7.59518 14.5759 7.85662 14.6812 8.20521 14.8709C8.48843 15.0395 8.79344 15.2503 9.03309 15.5031L9.3381 15.2713C9.07667 14.9763 8.72808 14.7234 8.35771 14.5126C8.00913 14.3019 7.68233 14.1965 7.42089 14.1965C7.31196 14.1965 7.20303 14.2176 7.13767 14.2387C7.05052 14.2597 6.96338 14.2808 6.83266 14.2808C6.70194 14.2808 6.59301 14.2597 6.4405 14.0701C6.37514 14.0068 6.00477 13.5853 5.91762 13.4589C5.87405 13.3957 5.80869 13.2903 5.80869 13.1428C5.80869 13.0795 5.80869 13.0163 5.85226 12.9531C6.17906 13.206 6.59301 13.3535 7.07231 13.4167L7.00695 13.1006C6.28799 12.932 5.52547 12.3209 5.52547 11.9415C5.52547 11.8572 5.54725 11.794 5.56904 11.7308C5.85226 11.9837 6.48407 12.2366 6.83266 12.2366C7.02874 12.2366 7.18124 12.1733 7.33375 12.1101C7.46447 12.0469 7.61697 12.0047 7.81305 12.0047C8.27057 12.0047 8.81523 12.2155 9.31632 12.4262C9.3381 12.4262 9.38168 12.4473 9.40346 12.4473C9.49061 12.4473 9.53418 12.4052 9.57775 12.3419L9.64311 12.2366C9.09845 11.9415 8.24878 11.6043 7.79126 11.6043C7.59518 11.6043 7.44268 11.6465 7.29017 11.7097C7.13767 11.7729 6.98516 11.8361 6.85444 11.8361C6.50586 11.8361 5.59083 11.4989 5.59083 11.1617C5.59083 10.7824 7.05052 10.6138 7.20303 10.6138L7.35553 10.2977C6.30978 10.2977 5.04616 10.6559 5.04616 11.1407C5.04616 11.2671 5.13331 11.3514 5.13331 11.4779C5.13331 11.6465 5.04616 11.7729 5.04616 11.9626C5.04616 12.089 5.13331 12.2576 5.22046 12.3841C5.32939 12.5316 5.43832 12.637 5.43832 12.7423C5.43832 12.8266 5.37296 12.9531 5.37296 13.1638C5.37296 13.6275 5.6344 13.9015 6.17906 14.4494L6.28799 14.5548C5.85226 14.7234 5.02438 15.0606 4.85009 15.1449C4.19649 15.4188 4.0222 15.735 4.0222 16.2408C4.00041 16.4094 4.00041 16.6412 4.0222 16.8309Z" fill="white"/>
<path d="M8.57512 6.20919C8.57512 6.18812 8.55333 6.14597 8.50976 6.14597C8.48797 6.14597 8.46619 6.16704 8.42261 6.18812C8.29189 6.29349 8.16118 6.41994 8.05224 6.54639C7.87795 6.73606 7.72545 7.01003 7.59473 7.28401L7.7908 7.38938C7.92152 7.22078 8.35725 6.58854 8.57512 6.25134C8.57512 6.25134 8.57512 6.23026 8.57512 6.20919Z" fill="white"/>
<path d="M4 24.6075C4 24.7129 4.02179 24.7761 4.08715 24.8393C4.15251 24.9025 4.23965 24.9447 4.37037 24.9447H4.69717C4.82789 24.9447 4.91503 24.9025 4.98039 24.8393C5.02397 24.7761 5.06754 24.7129 5.06754 24.6075V21.4463H5.08932C5.08932 21.4463 6.91939 24.5653 6.98475 24.6707C7.09368 24.8393 7.26797 24.9658 7.50763 24.9658H8.07407C8.20479 24.9658 8.29194 24.9236 8.3573 24.8604C8.40087 24.7972 8.44444 24.7339 8.44444 24.6286V20.6454H15.7647C15.8301 20.6454 15.8954 20.6244 15.939 20.5822C15.9826 20.5401 16.0044 20.4768 16.0044 20.4136V20.1186C16.0044 20.0343 15.9826 19.9921 15.939 19.95C15.8954 19.9078 15.8301 19.8867 15.7647 19.8867H7.72549C7.59477 19.8867 7.50763 19.9289 7.44227 19.9921C7.39869 20.0553 7.35512 20.1186 7.35512 20.2239V23.3219H7.33333C7.33333 23.3219 5.59041 20.3082 5.50327 20.1607C5.43791 20.0553 5.37255 19.9921 5.2854 19.95C5.19826 19.9078 5.11111 19.8657 4.93682 19.8657H4.34858C4.21786 19.8657 4.13072 19.9078 4.06536 19.971C4.02179 20.0343 4 20.0975 4 20.2239V24.6075Z" fill="white"/>
<path d="M12.4748 23.3219C12.5402 23.2587 12.562 23.1955 12.562 23.048C12.562 22.6054 12.4095 22.1417 12.1044 21.7835C11.7994 21.4252 11.3201 21.1723 10.6448 21.1723C9.42471 21.1723 8.72754 22.0996 8.72754 23.069C8.72754 24.1017 9.46828 25.029 10.6448 25.029C11.233 25.029 11.8212 24.8182 12.148 24.4389C12.3005 24.2703 12.4095 24.0385 12.4095 23.912C12.4095 23.8699 12.4095 23.8277 12.3659 23.7856C12.3441 23.7434 12.3005 23.7224 12.2134 23.7224H11.6469C11.538 23.7224 11.4509 23.7645 11.4073 23.8488C11.233 24.0806 10.9933 24.2071 10.6448 24.2071C10.1219 24.2071 9.77329 23.8277 9.7515 23.3852H12.2134C12.3441 23.3852 12.4095 23.3641 12.4748 23.3219ZM9.77329 22.6686C9.81686 22.2471 10.1437 21.931 10.6448 21.931C11.1458 21.931 11.4726 22.2471 11.5162 22.6686H9.77329Z" fill="white"/>
<path d="M5.26367 8.96992C5.26367 8.99099 5.28546 9.03314 5.30724 9.03314C5.32903 9.03314 5.35082 9.03314 5.39439 9.01207L6.67979 8.59057L6.61443 8.37982C6.09156 8.46412 5.6994 8.59057 5.26367 8.92777C5.26367 8.92777 5.26367 8.94884 5.26367 8.96992Z" fill="white"/>
<path d="M6.04829 6.52528C5.85221 6.37776 5.61256 6.27238 5.35112 6.16701L5.30755 6.14594C5.26397 6.14594 5.24219 6.16701 5.24219 6.18808C5.24219 6.20916 5.24219 6.23023 5.28576 6.25131C5.59077 6.50421 6.17901 6.98893 6.37508 7.13645L6.52759 6.96785C6.37509 6.79925 6.20079 6.65173 6.04829 6.52528Z" fill="white"/>
</g>
<defs>
<clipPath id="clip0_124_1831">
<rect width="20" height="20" fill="white" transform="translate(4 5.02899)"/>
</clipPath>
</defs>
</svg>
