<svg width="114" height="116" viewBox="0 0 114 116" fill="none" xmlns="http://www.w3.org/2000/svg">
<path d="M17 51.5133C17 28.1497 21.6887 20 45.625 20H53.5417C70.3354 20 78.7325 20 83.9496 25.6402C89.1667 31.2803 89.1667 33.3581 89.1667 51.5133V53.6533C89.1667 71.8087 89.1667 80.8862 83.9496 86.5267C78.7325 92.1667 70.3354 92.1667 53.5417 92.1667H45.625C28.8312 92.1667 27.4343 92.1667 22.2172 86.5267C17 80.8862 17 71.8087 17 53.6533V51.5133Z" fill="#E7E6E7"/>
<path fill-rule="evenodd" clip-rule="evenodd" d="M46 92.1667H53C69.7937 92.1667 78.1908 92.1667 83.4079 86.5267C88.625 80.8862 88.625 71.8087 88.625 53.6533V51.5133C88.625 33.3581 88.625 31.2803 83.4079 25.6402C78.1908 20 69.7937 20 53 20H46C62.7937 20 71.1908 20 76.4079 25.6402C81.625 31.2803 81.625 33.3581 81.625 51.5133V53.6533C81.625 71.8087 81.625 80.8862 76.4079 86.5267C71.1908 92.1667 62.7937 92.1667 46 92.1667Z" fill="#D2D1D1"/>
<path d="M45.832 54.1666H66.6654M33.332 54.1666H33.3694M54.1654 70.8333H33.332M66.6654 70.8333H66.6279" stroke="black" stroke-width="3" stroke-linecap="round" stroke-linejoin="round"/>
<path d="M75 8.33337V16.6667M25 8.33337V16.6667" stroke="black" stroke-width="3" stroke-linecap="round" stroke-linejoin="round"/>
<path d="M10.418 51.0133C10.418 32.8581 10.418 23.7803 15.6351 18.1402C20.8523 12.5 29.2492 12.5 46.043 12.5H53.9596C70.7534 12.5 79.1505 12.5 84.3675 18.1402C89.5846 23.7803 89.5846 32.8581 89.5846 51.0133V53.1533C89.5846 71.3087 89.5846 80.3862 84.3675 86.0267C79.1505 91.6667 70.7534 91.6667 53.9596 91.6667H46.043C29.2492 91.6667 20.8523 91.6667 15.6351 86.0267C12.5132 82.6514 11.2594 78.0454 10.7559 71" stroke="black" stroke-width="3" stroke-linecap="round" stroke-linejoin="round"/>
<path d="M12.5 33.3334H57.5H60.5H72.5" stroke="black" stroke-width="3" stroke-linecap="round" stroke-linejoin="round"/>
<path d="M97 79.5C97 68.7305 88.2696 60 77.5 60C66.7305 60 58 68.7305 58 79.5C58 90.2696 66.7305 99 77.5 99C88.2696 99 97 90.2696 97 79.5Z" stroke="white" stroke-width="12" stroke-linejoin="round"/>
<path d="M91 93L97.6667 99.6667" stroke="black" stroke-width="3" stroke-linejoin="round"/>
<path d="M97.4913 105.067C95.9508 103.527 95.9508 101.029 97.4913 99.4888C99.0316 97.9482 101.529 97.9482 103.07 99.4888L111.18 107.599C112.721 109.14 112.721 111.638 111.18 113.178C109.64 114.718 107.143 114.718 105.602 113.178L97.4913 105.067Z" stroke="black" stroke-width="3" stroke-linecap="round"/>
<path d="M96.3333 79.6667C96.3333 69.3574 87.976 61 77.6667 61C67.3574 61 59 69.3574 59 79.6667C59 89.976 67.3574 98.3333 77.6667 98.3333C87.976 98.3333 96.3333 89.976 96.3333 79.6667Z" stroke="black" stroke-width="3" stroke-linejoin="round"/>
</svg>
