<svg width="1440" height="94" viewBox="0 0 1440 94" fill="none" xmlns="http://www.w3.org/2000/svg">
<g clip-path="url(#clip0_1263_3732)">
<mask id="mask0_1263_3732" style="mask-type:luminance" maskUnits="userSpaceOnUse" x="0" y="0" width="94" height="94">
<path d="M93.3247 0H0V93.3247H93.3247V0Z" fill="white"/>
</mask>
<g mask="url(#mask0_1263_3732)">
<path d="M46.6623 0C48.2465 25.0855 68.239 45.0783 93.3247 46.6623C68.239 48.2465 48.2465 68.239 46.6623 93.3247C45.0783 68.239 25.0855 48.2465 0 46.6623C25.0855 45.0783 45.0783 25.0855 46.6623 0Z" fill="white" style="mix-blend-mode:difference"/>
</g>
</g>
<g clip-path="url(#clip1_1263_3732)">
<mask id="mask1_1263_3732" style="mask-type:luminance" maskUnits="userSpaceOnUse" x="103" y="0" width="94" height="94">
<path d="M196.916 0H103.591V93.3247H196.916V0Z" fill="white"/>
</mask>
<g mask="url(#mask1_1263_3732)">
<path d="M150.253 0C151.837 25.0855 171.83 45.0783 196.916 46.6623C171.83 48.2465 151.837 68.239 150.253 93.3247C148.669 68.239 128.676 48.2465 103.591 46.6623C128.676 45.0783 148.669 25.0855 150.253 0Z" fill="white" style="mix-blend-mode:difference"/>
</g>
</g>
<g clip-path="url(#clip2_1263_3732)">
<mask id="mask2_1263_3732" style="mask-type:luminance" maskUnits="userSpaceOnUse" x="207" y="0" width="94" height="94">
<path d="M300.505 0H207.181V93.3247H300.505V0Z" fill="white"/>
</mask>
<g mask="url(#mask2_1263_3732)">
<path d="M253.843 0C255.427 25.0855 275.42 45.0783 300.505 46.6623C275.42 48.2465 255.427 68.239 253.843 93.3247C252.259 68.239 232.266 48.2465 207.181 46.6623C232.266 45.0783 252.259 25.0855 253.843 0Z" fill="white" style="mix-blend-mode:difference"/>
</g>
</g>
<g clip-path="url(#clip3_1263_3732)">
<mask id="mask3_1263_3732" style="mask-type:luminance" maskUnits="userSpaceOnUse" x="310" y="0" width="95" height="94">
<path d="M404.096 0H310.771V93.3247H404.096V0Z" fill="white"/>
</mask>
<g mask="url(#mask3_1263_3732)">
<path d="M357.434 0C359.018 25.0855 379.01 45.0783 404.096 46.6623C379.01 48.2465 359.018 68.239 357.434 93.3247C355.85 68.239 335.857 48.2465 310.771 46.6623C335.857 45.0783 355.85 25.0855 357.434 0Z" fill="white" style="mix-blend-mode:difference"/>
</g>
</g>
<g clip-path="url(#clip4_1263_3732)">
<mask id="mask4_1263_3732" style="mask-type:luminance" maskUnits="userSpaceOnUse" x="414" y="0" width="94" height="94">
<path d="M507.686 0H414.361V93.3247H507.686V0Z" fill="white"/>
</mask>
<g mask="url(#mask4_1263_3732)">
<path d="M461.024 0C462.608 25.0855 482.6 45.0783 507.686 46.6623C482.6 48.2465 462.608 68.239 461.024 93.3247C459.44 68.239 439.447 48.2465 414.361 46.6623C439.447 45.0783 459.44 25.0855 461.024 0Z" fill="white" style="mix-blend-mode:difference"/>
</g>
</g>
<g clip-path="url(#clip5_1263_3732)">
<mask id="mask5_1263_3732" style="mask-type:luminance" maskUnits="userSpaceOnUse" x="517" y="0" width="95" height="94">
<path d="M611.277 0H517.952V93.3247H611.277V0Z" fill="white"/>
</mask>
<g mask="url(#mask5_1263_3732)">
<path d="M564.614 0C566.199 25.0855 586.191 45.0783 611.277 46.6623C586.191 48.2465 566.199 68.239 564.614 93.3247C563.03 68.239 543.038 48.2465 517.952 46.6623C543.038 45.0783 563.03 25.0855 564.614 0Z" fill="white" style="mix-blend-mode:difference"/>
</g>
</g>
<g clip-path="url(#clip6_1263_3732)">
<mask id="mask6_1263_3732" style="mask-type:luminance" maskUnits="userSpaceOnUse" x="621" y="0" width="94" height="94">
<path d="M714.867 0H621.542V93.3247H714.867V0Z" fill="white"/>
</mask>
<g mask="url(#mask6_1263_3732)">
<path d="M668.204 0C669.789 25.0855 689.781 45.0783 714.867 46.6623C689.781 48.2465 669.789 68.239 668.204 93.3247C666.62 68.239 646.627 48.2465 621.542 46.6623C646.627 45.0783 666.62 25.0855 668.204 0Z" fill="white" style="mix-blend-mode:difference"/>
</g>
</g>
<g clip-path="url(#clip7_1263_3732)">
<mask id="mask7_1263_3732" style="mask-type:luminance" maskUnits="userSpaceOnUse" x="725" y="0" width="94" height="94">
<path d="M818.458 0H725.133V93.3247H818.458V0Z" fill="white"/>
</mask>
<g mask="url(#mask7_1263_3732)">
<path d="M771.795 0C773.379 25.0855 793.372 45.0783 818.458 46.6623C793.372 48.2465 773.379 68.239 771.795 93.3247C770.211 68.239 750.218 48.2465 725.133 46.6623C750.218 45.0783 770.211 25.0855 771.795 0Z" fill="white" style="mix-blend-mode:difference"/>
</g>
</g>
<g clip-path="url(#clip8_1263_3732)">
<mask id="mask8_1263_3732" style="mask-type:luminance" maskUnits="userSpaceOnUse" x="828" y="0" width="95" height="94">
<path d="M922.048 0H828.724V93.3247H922.048V0Z" fill="white"/>
</mask>
<g mask="url(#mask8_1263_3732)">
<path d="M875.386 0C876.97 25.0855 896.963 45.0783 922.048 46.6623C896.963 48.2465 876.97 68.239 875.386 93.3247C873.802 68.239 853.809 48.2465 828.724 46.6623C853.809 45.0783 873.802 25.0855 875.386 0Z" fill="white" style="mix-blend-mode:difference"/>
</g>
</g>
<g clip-path="url(#clip9_1263_3732)">
<mask id="mask9_1263_3732" style="mask-type:luminance" maskUnits="userSpaceOnUse" x="932" y="0" width="94" height="94">
<path d="M1025.64 0H932.313V93.3247H1025.64V0Z" fill="white"/>
</mask>
<g mask="url(#mask9_1263_3732)">
<path d="M978.976 0C980.56 25.0855 1000.55 45.0783 1025.64 46.6623C1000.55 48.2465 980.56 68.239 978.976 93.3247C977.392 68.239 957.399 48.2465 932.313 46.6623C957.399 45.0783 977.392 25.0855 978.976 0Z" fill="white" style="mix-blend-mode:difference"/>
</g>
</g>
<g clip-path="url(#clip10_1263_3732)">
<mask id="mask10_1263_3732" style="mask-type:luminance" maskUnits="userSpaceOnUse" x="1035" y="0" width="95" height="94">
<path d="M1129.23 0H1035.9V93.3247H1129.23V0Z" fill="white"/>
</mask>
<g mask="url(#mask10_1263_3732)">
<path d="M1082.57 0C1084.15 25.0855 1104.14 45.0783 1129.23 46.6623C1104.14 48.2465 1084.15 68.239 1082.57 93.3247C1080.98 68.239 1060.99 48.2465 1035.9 46.6623C1060.99 45.0783 1080.98 25.0855 1082.57 0Z" fill="white" style="mix-blend-mode:difference"/>
</g>
</g>
<g clip-path="url(#clip11_1263_3732)">
<mask id="mask11_1263_3732" style="mask-type:luminance" maskUnits="userSpaceOnUse" x="1139" y="0" width="94" height="94">
<path d="M1232.82 0H1139.49V93.3247H1232.82V0Z" fill="white"/>
</mask>
<g mask="url(#mask11_1263_3732)">
<path d="M1186.16 0C1187.74 25.0855 1207.73 45.0783 1232.82 46.6623C1207.73 48.2465 1187.74 68.239 1186.16 93.3247C1184.57 68.239 1164.58 48.2465 1139.49 46.6623C1164.58 45.0783 1184.57 25.0855 1186.16 0Z" fill="white" style="mix-blend-mode:difference"/>
</g>
</g>
<g clip-path="url(#clip12_1263_3732)">
<mask id="mask12_1263_3732" style="mask-type:luminance" maskUnits="userSpaceOnUse" x="1243" y="0" width="94" height="94">
<path d="M1336.41 0H1243.08V93.3247H1336.41V0Z" fill="white"/>
</mask>
<g mask="url(#mask12_1263_3732)">
<path d="M1289.75 0C1291.33 25.0855 1311.32 45.0783 1336.41 46.6623C1311.32 48.2465 1291.33 68.239 1289.75 93.3247C1288.16 68.239 1268.17 48.2465 1243.08 46.6623C1268.17 45.0783 1288.16 25.0855 1289.75 0Z" fill="white" style="mix-blend-mode:difference"/>
</g>
</g>
<g clip-path="url(#clip13_1263_3732)">
<mask id="mask13_1263_3732" style="mask-type:luminance" maskUnits="userSpaceOnUse" x="1346" y="0" width="94" height="94">
<path d="M1440 0H1346.68V93.3247H1440V0Z" fill="white"/>
</mask>
<g mask="url(#mask13_1263_3732)">
<path d="M1393.34 0C1394.92 25.0855 1414.91 45.0783 1440 46.6623C1414.91 48.2465 1394.92 68.239 1393.34 93.3247C1391.75 68.239 1371.76 48.2465 1346.68 46.6623C1371.76 45.0783 1391.75 25.0855 1393.34 0Z" fill="white" style="mix-blend-mode:difference"/>
</g>
</g>
<defs>
<clipPath id="clip0_1263_3732">
<rect width="93.3247" height="93.3247" fill="white"/>
</clipPath>
<clipPath id="clip1_1263_3732">
<rect width="93.3247" height="93.3247" fill="white" transform="translate(103.591)"/>
</clipPath>
<clipPath id="clip2_1263_3732">
<rect width="93.3247" height="93.3247" fill="white" transform="translate(207.181)"/>
</clipPath>
<clipPath id="clip3_1263_3732">
<rect width="93.3247" height="93.3247" fill="white" transform="translate(310.771)"/>
</clipPath>
<clipPath id="clip4_1263_3732">
<rect width="93.3247" height="93.3247" fill="white" transform="translate(414.361)"/>
</clipPath>
<clipPath id="clip5_1263_3732">
<rect width="93.3247" height="93.3247" fill="white" transform="translate(517.952)"/>
</clipPath>
<clipPath id="clip6_1263_3732">
<rect width="93.3247" height="93.3247" fill="white" transform="translate(621.542)"/>
</clipPath>
<clipPath id="clip7_1263_3732">
<rect width="93.3247" height="93.3247" fill="white" transform="translate(725.133)"/>
</clipPath>
<clipPath id="clip8_1263_3732">
<rect width="93.3247" height="93.3247" fill="white" transform="translate(828.724)"/>
</clipPath>
<clipPath id="clip9_1263_3732">
<rect width="93.3247" height="93.3247" fill="white" transform="translate(932.313)"/>
</clipPath>
<clipPath id="clip10_1263_3732">
<rect width="93.3247" height="93.3247" fill="white" transform="translate(1035.9)"/>
</clipPath>
<clipPath id="clip11_1263_3732">
<rect width="93.3247" height="93.3247" fill="white" transform="translate(1139.49)"/>
</clipPath>
<clipPath id="clip12_1263_3732">
<rect width="93.3247" height="93.3247" fill="white" transform="translate(1243.08)"/>
</clipPath>
<clipPath id="clip13_1263_3732">
<rect width="93.3247" height="93.3247" fill="white" transform="translate(1346.68)"/>
</clipPath>
</defs>
</svg>
