<svg width="21" height="20" viewBox="0 0 21 20" fill="none" xmlns="http://www.w3.org/2000/svg">
<path d="M4.25033 7.91663H3.83366C3.04798 7.91663 2.65515 7.91663 2.41107 8.1607C2.16699 8.40479 2.16699 8.79763 2.16699 9.58329V16.6666C2.16699 17.4523 2.16699 17.8451 2.41107 18.0892C2.65515 18.3333 3.04798 18.3333 3.83366 18.3333H4.25033C5.036 18.3333 5.42883 18.3333 5.67292 18.0892C5.91699 17.8451 5.91699 17.4523 5.91699 16.6666V9.58329C5.91699 8.79763 5.91699 8.40479 5.67292 8.1607C5.42883 7.91663 5.036 7.91663 4.25033 7.91663Z" stroke="#1E1A1C" stroke-width="1.5"/>
<path d="M5.91699 3.54163C5.91699 4.57716 5.07753 5.41663 4.04199 5.41663C3.00646 5.41663 2.16699 4.57716 2.16699 3.54163C2.16699 2.50609 3.00646 1.66663 4.04199 1.66663C5.07753 1.66663 5.91699 2.50609 5.91699 3.54163Z" stroke="#1E1A1C" stroke-width="1.5"/>
<path d="M10.772 7.91663H10.0837C9.29799 7.91663 8.90516 7.91663 8.66107 8.1607C8.41699 8.40479 8.41699 8.79763 8.41699 9.58329V16.6666C8.41699 17.4523 8.41699 17.8451 8.66107 18.0892C8.90516 18.3333 9.29799 18.3333 10.0837 18.3333H10.5003C11.286 18.3333 11.6788 18.3333 11.9229 18.0892C12.167 17.8451 12.167 17.4523 12.167 16.6666L12.1671 13.75C12.1671 12.3694 12.6071 11.25 13.9069 11.25C14.5567 11.25 15.0837 11.8097 15.0837 12.5V16.25C15.0837 17.0357 15.0837 17.4285 15.3277 17.6726C15.5717 17.9167 15.9647 17.9167 16.7503 17.9167H17.1659C17.9514 17.9167 18.3442 17.9167 18.5882 17.6727C18.8323 17.4287 18.8324 17.036 18.8326 16.2505L18.8337 11.6668C18.8337 9.59579 16.864 7.91683 14.9143 7.91683C13.8044 7.91683 12.8142 8.46088 12.1671 9.31163C12.167 8.78654 12.167 8.52404 12.053 8.32913C11.9807 8.20568 11.8779 8.1029 11.7545 8.03068C11.5596 7.91663 11.2971 7.91663 10.772 7.91663Z" stroke="#1E1A1C" stroke-width="1.5" stroke-linejoin="round"/>
</svg>
