<svg width="20" height="20" viewBox="0 0 20 20" fill="none" xmlns="http://www.w3.org/2000/svg">
<path d="M3.74935 7.91666H3.33268C2.54701 7.91666 2.15417 7.91666 1.91009 8.16074C1.66602 8.40483 1.66602 8.79766 1.66602 9.58333V16.6667C1.66602 17.4523 1.66602 17.8452 1.91009 18.0892C2.15417 18.3333 2.54701 18.3333 3.33268 18.3333H3.74935C4.53502 18.3333 4.92786 18.3333 5.17194 18.0892C5.41602 17.8452 5.41602 17.4523 5.41602 16.6667V9.58333C5.41602 8.79766 5.41602 8.40483 5.17194 8.16074C4.92786 7.91666 4.53502 7.91666 3.74935 7.91666Z" stroke="white" stroke-width="1.5"/>
<path d="M5.41602 3.54167C5.41602 4.57721 4.57655 5.41667 3.54102 5.41667C2.50548 5.41667 1.66602 4.57721 1.66602 3.54167C1.66602 2.50614 2.50548 1.66667 3.54102 1.66667C4.57655 1.66667 5.41602 2.50614 5.41602 3.54167Z" stroke="white" stroke-width="1.5"/>
<path d="M10.271 7.91666H9.58268C8.79702 7.91666 8.40418 7.91666 8.16009 8.16074C7.91602 8.40483 7.91602 8.79766 7.91602 9.58333V16.6667C7.91602 17.4523 7.91602 17.8452 8.16009 18.0892C8.40418 18.3333 8.79702 18.3333 9.58268 18.3333H9.99935C10.785 18.3333 11.1778 18.3333 11.4219 18.0892C11.666 17.8452 11.666 17.4523 11.666 16.6667L11.6661 13.7501C11.6661 12.3694 12.1061 11.2501 13.4059 11.2501C14.0558 11.2501 14.5827 11.8097 14.5827 12.5001V16.2501C14.5827 17.0357 14.5827 17.4286 14.8268 17.6727C15.0708 17.9167 15.4637 17.9167 16.2493 17.9167H16.6649C17.4504 17.9167 17.8432 17.9167 18.0873 17.6727C18.3313 17.4287 18.3314 17.036 18.3316 16.2505L18.3328 11.6668C18.3328 9.59583 16.363 7.91686 14.4133 7.91686C13.3034 7.91686 12.3133 8.46091 11.6661 9.31166C11.666 8.78658 11.666 8.52408 11.552 8.32916C11.4798 8.20571 11.3769 8.10294 11.2535 8.03072C11.0586 7.91666 10.7961 7.91666 10.271 7.91666Z" stroke="white" stroke-width="1.5" stroke-linejoin="round"/>
</svg>
