<svg width="32" height="32" viewBox="0 0 32 32" fill="none" xmlns="http://www.w3.org/2000/svg">
<rect width="32" height="32" rx="16" fill="#F3ECE2"/>
<path d="M23.1829 13.0416C22.3079 9.19159 18.9496 7.45825 15.9996 7.45825C15.9996 7.45825 15.9996 7.45825 15.9913 7.45825C13.0496 7.45825 9.68292 9.18325 8.80792 13.0333C7.83292 17.3333 10.4663 20.9749 12.8496 23.2666C13.7329 24.1166 14.8663 24.5416 15.9996 24.5416C17.1329 24.5416 18.2663 24.1166 19.1413 23.2666C21.5246 20.9749 24.1579 17.3416 23.1829 13.0416ZM15.9996 17.2166C14.5496 17.2166 13.3746 16.0416 13.3746 14.5916C13.3746 13.1416 14.5496 11.9666 15.9996 11.9666C17.4496 11.9666 18.6246 13.1416 18.6246 14.5916C18.6246 16.0416 17.4496 17.2166 15.9996 17.2166Z" fill="#1E1A1C"/>
</svg>
